<svg xmlns="http://www.w3.org/2000/svg" data-name="Layer 1" viewBox="0 0 34.643 64"><path d="M34.642 62.99c-.017.071-.03.143-.051.213a1.105 1.105 0 0 1-1.009.768c-.2.005-.4 0-.594 0h-2.2a1.1 1.1 0 0 1-1.093-.873 1.453 1.453 0 0 1-.023-.31v-17.88a1.04 1.04 0 0 0-.121-.5 1.462 1.462 0 0 0-1.291-.813H15.501c-.648 0-1.3.019-1.945-.013-.8-.039-1.591-.015-2.387-.028a.988.988 0 0 1-.983-1c.009-1.173.006-2.346.007-3.52v-8.511q0-1.224.006-2.45c0-1.456.01-2.911 0-4.367 0-1.059-.043-2.118-.132-3.174-.059-.69-.116-1.381-.191-2.07-.118-1.1-.28-2.188-.477-3.274a50.787 50.787 0 0 0-1.71-6.74 68.862 68.862 0 0 0-1.342-3.743.6.6 0 0 0-.064-.149.352.352 0 0 1-.024-.361Q6.892 2.178 7.52.158c.017-.053.04-.105.061-.158.089.02.087.084.1.132.131.415.26.83.39 1.246l6.35 20.265c.252.808.507 1.614.756 2.422a1.184 1.184 0 0 1 .047.335v14.767h15.028a4.4 4.4 0 0 1 4.348 3.672c.017.1.028.2.042.306zM.834 64c-.045-.017-.089-.037-.135-.052a.992.992 0 0 1-.68-.9V43.723q0-9.639-.018-19.279a1.217 1.217 0 0 1 .058-.378q1.742-5.557 3.479-11.116c.016-.054.041-.1.062-.157h.038a.881.881 0 0 1 .05.125q.3 1.248.532 2.511a49.43 49.43 0 0 1 .466 3.036c.079.668.134 1.339.193 2.01.132 1.52.146 3.045.146 4.57v37.882a1 1 0 0 1-.791 1.058.134.134 0 0 0-.043.015z"/><path d="M11.084 64a.8.8 0 0 0-.082-.029.981.981 0 0 1-.793-.947V49.509a1 1 0 0 1 .189-.642 1.605 1.605 0 0 1 .255-.246.51.51 0 0 1 .331-.1h14.213a.631.631 0 0 1 .374.116.95.95 0 0 1 .432.773v13.426a1.091 1.091 0 0 1-.674 1.059.965.965 0 0 1-.418.087h-2.777a1.1 1.1 0 0 1-1.1-1.128v-5.852c0-1.064-.006-2.128 0-3.193a.915.915 0 0 0-.694-.872 1.017 1.017 0 0 0-.221-.022h-3.995a.9.9 0 0 0-.911.9v9.163a1.015 1.015 0 0 1-.633.951c-.077.03-.157.051-.236.076z"/></svg>